<?xml version="1.0" encoding="UTF-8"?><svg id="Layer_2" xmlns="http://www.w3.org/2000/svg" viewBox="0 0 762.32 469.44"><defs><style>.cls-1,.cls-2,.cls-3,.cls-4,.cls-5,.cls-6{stroke:#222831;stroke-linecap:round;stroke-linejoin:round;}.cls-1,.cls-2,.cls-4{stroke-width:2px;}.cls-1,.cls-3,.cls-6{fill:none;}.cls-7,.cls-8,.cls-9,.cls-10,.cls-11,.cls-12{stroke-width:0px;}.cls-7,.cls-2{fill:#eee;}.cls-8{fill:#7971e8;}.cls-3{stroke-width:2.16px;}.cls-4,.cls-11{fill:#222831;}.cls-5{fill:#ebebeb;}.cls-5,.cls-6{stroke-width:1.46px;}.cls-9{fill:#ededed;}.cls-10{fill:#dedde9;}.cls-12{fill:#d3d1ea;}</style></defs><g id="DUO-Illustrations"><circle class="cls-10" cx="689.64" cy="287.87" r="72.68"/><circle class="cls-5" cx="736.02" cy="235.16" r="22.6" transform="translate(338.05 897.46) rotate(-76.72)"/><polygon class="cls-10" points="363.58 392.68 359 431.5 473.24 441.14 434.58 367.65 363.58 392.68"/><polygon class="cls-10" points="0 244.13 62.95 269.66 92.28 225.67 64.55 170.26 0 244.13"/><path class="cls-11" d="M151.74,391.19l-3.18-58.38-109.51,5.96-1.3-23.84,90.74-153.57,39.38-2.14,7.99,146.82,32.47-1.77,1.37,25.22-32.47,1.77,3.18,58.38-28.67,1.56ZM140.65,187.37l-74.3,124.61,80.84-4.4-6.54-120.22Z"/><path class="cls-11" d="M258.42,277.47c0-56.39,32.48-119.01,115.03-119.01s115.03,62.62,115.03,119.01-32.93,119.36-115.03,119.36-115.03-63.31-115.03-119.36ZM450.14,277.47c0-46.01-19.4-93.41-76.69-93.41s-76.69,47.4-76.69,93.41,19.4,93.76,76.69,93.76,76.69-47.74,76.69-93.76Z"/><path class="cls-11" d="M632.33,394.58l6.14-58.14-109.06-11.52,2.51-23.74,113.98-137.21,39.22,4.14-15.44,146.22,32.34,3.42-2.65,25.12-32.34-3.42-6.14,58.14-28.56-3.02ZM653.76,191.59l-93.15,111.23,80.51,8.5,12.64-119.73Z"/><path class="cls-9" d="M538.63,211.28l-4.5-5.42-5.5-1.15-5.89-31.92-6.34-24.27-7.36-21.1-14.22-27.55-8.52-10.8-9.06-5-8.17-1.55-16.86,2.38-14.39,4.38-.43,1.75-.29-.15v-1.8l3.85-2.7-3.11-17.95c-42.94,24-76.21-21.21-76.21-21.21-11.89,7.58-11.54,37.93-11.54,37.93-11.8-2.84-12.86,9.31-12.86,9.31-.83,7.44,5.76,14.35,5.76,14.35-4.93,24.79-2.72,66.59-2.72,66.59-15.19-1.36-27.44,5.54-27.44,5.54l-11.93,4.7-50.7,48.98-1.55-.2-7.03-1.7-5.61,2.56-3.18,5.98,1.88,7.86,9.06,10.46c-3.62,49.69,41.69,79.75,41.69,79.75l-9.49,6.06-2.37,5.52,2.45,7.03,5.49,5.46,7.93,2.9,8.39-1.1,10.23-5.52,5.52-6.1,24.86,7.98,20.69,4.27,22.1,1.83h10.44l13.4-2.58,18.94-7.12,10.19-10.75,5.14-9.83,2.4-14.12-3.96-23-6.7-38.5-3.81-28.66,68.86,42.15,12.36,3.62,7.33-.45,7.53-3.01,6.27-5.75,3.41-8.47-1.31-18.81-1.72-19.1,6.7-4.46,1.91-7.54ZM308.34,272.35l-.42,14.97-4.22,16.98-3.25,8.47-3.1,3.56-19.2-33.08,8.53,1.01,5.65-3.26,2.69-4.95-.37-5.7-5.05-5.24,21.68-20.04-2.94,27.27ZM483.85,204.71l-4.4.72-14.41-9.77-14.94-7.39-8.21-2.68-10.01-1.72-10.42.39-10.78,3.67-8.33,6.41-7.74,4.28c-14.2-14.18-8.39-45.91-8.39-45.91l11.45,1.93,16.82-1.29,11.97-6.36,9.49-12.89,4.24-13.27,1.69-15.02v-11.73l12.23,4.73-7.18.55v2.35l26.19,14.27c13.6,34.03,10.72,88.73,10.72,88.73Z"/><path class="cls-1" d="M448.27,99.1l7.69-.3,12.15,7.1,5.02,9.31-25.55-12.96c-1.53-.78-1.03-3.09.69-3.15Z"/><path class="cls-8" d="M349.98,85.34s-5.62-2.32-8.62.36c0,0-2.39-26.02-1.33-38.71,0,0,2.11-16.98,16.11-18.05,0,0,5.57-26.69,42.26-22.22,0,0,24.86,2.48,38.02,20.97,0,0,15.06,16.53,9.16,30.24,0,0-9.17,22.69-40.22,16.39,0,0-17.33-1.61-30.59-13.35,0,0-11.47-9.78-13.14-13.79,0,0-11.01,9.09-11.53,33.15l-.12,5Z"/><path class="cls-1" d="M386.38,153.34s-6.22,24.43,6.96,45.28"/><path class="cls-1" d="M437.84,68.41s18.6,71.93-23.87,85.51c0,0-31.93,8.76-55.8-23.58"/><path class="cls-1" d="M354.66,107.93s-13.89,8.08-17.36-11.06c-.1-.51-.14-1.04-.13-1.56.16-3.61,1.77-15.44,17.58-8.31"/><path class="cls-1" d="M345.06,92.25s5.77-.96,6.66,7.1"/><path class="cls-1" d="M348.79,94.44s-3.27,1.65-2.86,6.81"/><path class="cls-1" d="M350.08,85.13s-2.03-22.98,11.64-38.68"/><path class="cls-1" d="M341.79,85.08s-12.01-66.65,21.8-54.89"/><path class="cls-1" d="M355.66,28.61s5.04-24.26,42.3-22.33c.99.05,1.99.18,2.96.37,7.17,1.62,38.32,10.17,45.43,39.06,0,0,5.55,29.76-35.59,29.48,0,0-38.14-2.64-52.35-35.21"/><path class="cls-4" d="M384.72,162.39s-19.55-3.65-26.62-31.86c0,0,8.81,13.46,28.12,22.17,0,0-2.38.95-1.5,9.69Z"/><path class="cls-1" d="M342.98,108s-5.82,25.77-2.09,66.38"/><path class="cls-11" d="M424.17,95.64c-1.12-.16-2.29,1.61-2.62,3.94-.33,2.33.31,4.35,1.43,4.51,1.12.16,2.29-1.61,2.62-3.94.33-2.33-.31-4.35-1.43-4.51Z"/><path class="cls-11" d="M405.06,92.95c-1.12-.16-2.29,1.61-2.62,3.94s.31,4.35,1.43,4.51c1.12.16,2.29-1.61,2.62-3.94.33-2.33-.31-4.35-1.43-4.51Z"/><path class="cls-1" d="M415.32,104.79l.73,12.85s1.53,5.33-9.39,2.2"/><path class="cls-1" d="M396.71,135.7c.76-4.84,7.99-5.85,12.82-5.09s5.45,3,4.7,7.84c-.76,4.84-5.29,8.15-10.13,7.39-4.84-.76-8.15-5.29-7.39-10.13Z"/><path class="cls-1" d="M395.62,83.65s9.81,9.91,18.23,2.9"/><path class="cls-1" d="M434.83,84.9s-7.59-6.71-13.36-1.22"/><path class="cls-1" d="M308.82,183.3s31.9-22.36,51.5,5.78,46.33,1.71,46.33,1.71c0,0,23.25-23.56,73.74,15.37"/><path class="cls-2" d="M528.63,203.9c-10.89-69.44-29.03-99.72-40.2-112.33-5.13-5.78-12.51-9.03-20.23-9.07-13.54-.07-23.86,3.27-29.75,5.81-1.93.83-1.73,3.64.29,4.2,5.64,1.57,14.85,4.66,25.19,10.26,3.93,2.13,6.91,5.67,8.35,9.89,4.47,13.09,13.4,45.42,11.89,91.25"/><path class="cls-1" d="M529.94,222.26s1.32,15.82,3.16,34.04c.78,7.74-2.48,13.09-6.49,16.68-6.21,5.55-14.93,7.26-22.95,5.01-9.8-2.75-17.5-8.34-17.5-8.34l-59.33-36.85s6.39,47.82,13.94,81.76c3.61,16.24-2.88,33.25-16.72,42.49-17.33,11.56-56.76,16.66-109.22-2.71"/><path class="cls-1" d="M485.16,223.27s-.31,11.82-2.29,23.78"/><path class="cls-7" d="M531.42,222.38c-15.91,4.38-32.56,4.38-48.46,0-5.41-1.49-8.38-7-6.78-11.61h0c1.6-4.63,6.36-6.94,10.74-5.74,13.31,3.67,27.24,3.67,40.55,0,4.38-1.19,9.14,1.12,10.74,5.74h0c1.6,4.61-1.37,10.13-6.78,11.61Z"/><path class="cls-3" d="M531.42,222.38c-15.91,4.38-32.56,4.38-48.46,0-5.41-1.49-8.38-7-6.78-11.61h0c1.6-4.63,6.36-6.94,10.74-5.74,13.31,3.67,27.24,3.67,40.55,0,4.38-1.19,9.14,1.12,10.74,5.74h0c1.6,4.61-1.37,10.13-6.78,11.61Z"/><path class="cls-2" d="M249.63,235.16l46.34-45.68s15.2-16.18,35.34-3.18c10.34,6.67,7.46,19.43,2.66,29.73-3.74,8.01-9.03,15.19-15.41,21.31l-28.96,27.78"/><path class="cls-2" d="M280.19,283.44c-17.78-6.94-33.21-18.47-44.92-33.54-3.98-5.12-2.92-12.29,1.75-15.46h0c4.68-3.18,10.69-2.03,13.93,2.11,9.8,12.61,22.71,22.26,37.59,28.07,4.88,1.93,7.69,7.36,5.98,12.75h0c-1.71,5.38-8.28,8.43-14.32,6.07Z"/><path class="cls-2" d="M280.19,283.44c-17.78-6.94-33.21-18.47-44.92-33.54-3.98-5.12-2.92-12.29,1.75-15.46h0c4.68-3.18,10.69-2.03,13.93,2.11,9.8,12.61,22.71,22.26,37.59,28.07,4.88,1.93,7.69,7.36,5.98,12.75h0c-1.71,5.38-8.28,8.43-14.32,6.07Z"/><path class="cls-2" d="M311.48,244.13s-3.75,17.29-3.07,34.44c.68,17.15-9.85,38.38-9.85,38.38"/><path class="cls-1" d="M243.76,259.56s-8.69,40.29,42.28,79.4"/><path class="cls-1" d="M277.78,282.47s13.94,30.71,32.27,49.34c3.62,3.68,5.75,8.63,5.66,13.79-.08,4.51-1.78,9.66-7.5,13.96,0,0-17.11,14.32-29.5,1.4,0,0-12.22-10.47,1.05-18.68l13.09-6.81"/><path class="cls-12" d="M266.51,40.41l-10.83,27-9.81-2.84-1.26,3.64,13.25,4.54,11.92-30.35-3.27-1.98Z"/><path class="cls-12" d="M209.35,38.54l21.95,33.12-8.08,6.7,1.87,3.26,11.86-8.86-24.67-36.26-2.93,2.05Z"/><path class="cls-12" d="M182.83,75.78s29.18,12.86,29.51,12.94c.33.07-2.99,10.07-2.99,10.07l3.18,1.68,5.98-12.5-34.09-15.22-1.59,3.04Z"/><rect class="cls-6" x="240.5" y="47.22" width="33.25" height="14.45" transform="translate(118.44 277.69) rotate(-70.1)"/><rect class="cls-6" x="191.43" y="67.48" width="14.45" height="37.57" transform="translate(40.84 234.59) rotate(-66.7)"/><rect class="cls-6" x="211.58" y="36.69" width="14.45" height="44.21" transform="translate(5.32 134.67) rotate(-34.61)"/><path class="cls-12" d="M585.89,400.57l-29.07,1.16-.61,10.2-3.85-.04.16-14,32.59-1.06.77,3.74Z"/><path class="cls-12" d="M568.5,455.06l-23.84-31.78-9.02,5.37-2.44-2.85,12.33-8.21,25.9,35.39-2.92,2.08Z"/><path class="cls-12" d="M524.52,467.57s-2.34-31.8-2.3-32.14c.04-.34-10.49-.56-10.49-.56l-.52-3.56,13.78-1.44,2.91,37.22-3.39.48Z"/><rect class="cls-6" x="552.9" y="397.49" width="33.25" height="14.45" transform="translate(-2.22 3.15) rotate(-.32)"/><rect class="cls-6" x="512.72" y="430.36" width="14.45" height="37.57" transform="translate(-28.06 34.7) rotate(-3.72)"/><rect class="cls-6" x="545.37" y="417.26" width="14.45" height="44.21" transform="translate(-152.61 406.42) rotate(-35.81)"/><polygon class="cls-5" points="416.3 420.06 425.36 452 397.54 451.17 416.3 420.06"/><polygon class="cls-10" points="537.33 52.53 552.47 0 592.44 29.39 537.33 52.53"/><path class="cls-8" d="M238.55,419.07l11.55,21.81-17.11,10.68,12.97,9.27,12.09-6.21,6.8,14.83,13.57-.75-9.07-20.01,19.25-15.37-10.5-9.75-16.15,10.17-7.18-16.17-16.24,1.52Z"/><path class="cls-6" d="M268.17,157.63s-.04-1.66-.19-2.19c-.4-1.36-1.26-2.82-2.18-3.92-2.53-3.02-7.91-4.29-11.55-2.13-3.96,2.35.95,7.45,2.26,3.18.27-.87.38-1.65.33-2.56-.07-1.24-.55-2.24-1.23-3.28-.73-1.12-1.45-1.93-2.6-2.68-3.6-2.34-7.56-2.77-11.37-.4-1.79,1.11-5.37,5.28-2.28,6.96,1.56.84,3.74-.59,4.81-1.64,2.52-2.47,3.72-6.19,1.32-9-5-5.86-12.39-5.8-18.78-2.02-2.56,1.51-5.8,3.74-5.64,6.93"/><path class="cls-10" d="M637.51,109.92l-26.05,10.27c-.97-.63-1.89-1.37-2.74-2.23-.38-.38-.74-.77-1.07-1.18l30.35-10.96c0,1.38-.16,2.75-.49,4.09Z"/><path class="cls-10" d="M636.94,99.92l-32.04,12.25c-.21-.51-.38-1.02-.53-1.55l31.48-13.07c.43.77.79,1.56,1.08,2.37Z"/><path class="cls-10" d="M633.07,93.82l-29.38,12.37c-.04-1.68.18-3.38.64-5.01l24.28-10.63c1.58.79,3.04,1.84,4.35,3.16.04.04.07.07.1.11Z"/><path class="cls-11" d="M638,88.68c-9.47-9.47-24.84-9.47-34.31,0-8.67,8.67-9.4,22.27-2.2,31.77l-17.78,17.78c-.66.66-1,1.53-1,2.4s.34,1.74,1,2.4c1.33,1.33,3.48,1.33,4.8,0l17.78-17.78c9.5,7.13,23.04,6.38,31.69-2.27,9.47-9.47,9.48-24.83,0-34.3ZM608.71,117.97c-6.7-6.7-6.7-17.56,0-24.26s17.56-6.7,24.26,0,6.7,17.56,0,24.26c-6.7,6.7-17.56,6.7-24.26,0Z"/></g></svg>