<svg width="865" height="560" viewBox="0 0 865 560" fill="none" xmlns="http://www.w3.org/2000/svg">
<g clip-path="url(#clip0_1_378)">
<path fill-rule="evenodd" clip-rule="evenodd" d="M261.285 68.5929L291.545 180.537L799.585 84.4852L801.956 0.000213623L261.285 68.5929Z" fill="#7971EA" fill-opacity="0.2"/>
<path fill-rule="evenodd" clip-rule="evenodd" d="M160.567 173.348L60.6934 141.026L0.000549316 225.212L95.2944 381.606C95.2944 381.606 99.064 283.863 157.434 320.692L156.621 308.528C156.621 308.528 137.577 308.643 128.631 296.639C128.631 296.639 120.274 286.781 125.958 276.5C125.958 276.5 134.105 244.756 132.866 232.64C132.866 232.64 131.018 196.95 151.146 180.102L160.567 173.348Z" fill="#7971EA" fill-opacity="0.2"/>
<path fill-rule="evenodd" clip-rule="evenodd" d="M713.857 233.174L834.632 173.025L863.847 321.882L755.417 330.433C755.417 330.433 755.022 283.529 716.855 298.257L713.857 233.174Z" fill="#7971EA" fill-opacity="0.2"/>
<path fill-rule="evenodd" clip-rule="evenodd" d="M672.738 130.98C672.738 130.98 614.205 145.476 621.095 174.61C621.095 174.61 619.41 190.004 643.224 191.323C643.224 191.323 669.048 192.345 698.426 167.875C698.426 167.875 709.514 175.475 709.571 200.457C709.571 200.457 710.923 194.857 716.114 196.701L715.783 194.546C715.783 194.546 721.707 152.014 706.998 148.425C706.998 148.425 697.645 128.513 677.603 130.442L672.738 130.98Z" fill="#7971EA"/>
<path fill-rule="evenodd" clip-rule="evenodd" d="M801.986 425.59C801.986 425.59 840.859 415.07 846.575 380.533C846.575 380.533 851.047 361.988 821.861 347.974C821.861 347.974 847.394 345.702 856.637 373.016C856.637 373.016 853.36 426.787 801.986 425.59Z" fill="#D4D3EB"/>
<path fill-rule="evenodd" clip-rule="evenodd" d="M716.892 422.803C716.892 422.803 719.296 414.37 738.125 425.374C738.125 425.374 757.579 437.894 775.52 420.889C775.52 420.889 781.869 417.368 780.736 425.426L772.084 430.865L763.938 434.313L749.408 436.079L739.078 433.377L727.624 427.272L720.412 422.485L716.892 422.803Z" fill="#D4D3EB"/>
<path fill-rule="evenodd" clip-rule="evenodd" d="M778.611 341.408C778.611 341.408 766.373 356.425 769.702 377.819C769.702 377.819 773.101 398.619 790.67 405.46L800.405 412.437L801.851 410.84C801.851 410.84 795.682 404.038 792.222 402.925C792.222 402.925 765.843 383.085 776.639 362.881C776.639 362.881 782.787 353.506 779.528 346.87L778.611 341.408Z" fill="#D4D3EB"/>
<path fill-rule="evenodd" clip-rule="evenodd" d="M153.449 255.962C153.449 255.962 152.009 277.09 155.713 307.69L151.933 308.409L133.781 302.445L123.459 294.639L121.614 288.322L124.393 280.574L128.045 268.234L132.503 240.965L134.199 211.812L138.731 197.414L144.183 188.635L151.011 180.045L160.018 173.107L169.41 167.773L177.788 165.965L187.074 164.1L195.915 164.383L209.063 167.471L217.817 172.463L220.877 174.906L225.41 182.006L232.02 196.779L234.948 211.166L234.607 220.853L214.693 230.089L201.238 233.63L188.561 235.34L171.921 233.902L160.091 230.168L159.268 227.31L157.385 219.183L158.778 208.092L160.224 201.945L159.638 202.103L155.145 210.722L152.251 221.767C152.251 221.767 152.261 232.768 152.952 234.943L148.118 237.315L146.741 242.139L145.961 247.913L148.512 253.159L153.449 255.962Z" fill="#7971EA"/>
<path fill-rule="evenodd" clip-rule="evenodd" d="M173.079 273.91C173.079 273.91 187.628 276.993 188.952 276.97C190.277 276.948 200.307 277.198 200.307 277.198L213.168 276.459L220.987 272.323L224.292 269.029L229.201 275.543L236.419 279.62L238.759 283.902L236.665 289.005L217.967 299.655L194.449 306.019L185.815 307.919L179.399 294.552L173.864 276.907L173.079 273.91Z" fill="#7971EA"/>
<path fill-rule="evenodd" clip-rule="evenodd" d="M227.786 386.077C227.786 386.077 212.774 443.348 242.658 481.683L258.844 482.436C258.844 482.436 227.093 445.624 227.786 386.077Z" fill="#E0DFEB"/>
<path fill-rule="evenodd" clip-rule="evenodd" d="M95.1195 426.207C95.1195 426.207 127.782 481.821 181.214 475.723L175.622 483.241L140.54 482.798L125.03 474.458L108.648 461.943L98.3992 447.587L95.4341 433.695L95.1195 426.207Z" fill="#7971EA" fill-opacity="0.1"/>
<path fill-rule="evenodd" clip-rule="evenodd" d="M419.939 397.735C419.939 397.735 421.108 410.245 442.582 409.453C464.056 408.66 466.219 409.618 468.16 425.289C468.16 425.289 464.868 432.162 457.808 437.116C453.704 439.995 448.417 441.339 441.526 442.621C441.526 442.621 435.768 442.456 429.607 439.495C419.489 434.636 407.96 423.432 416.671 401.864L419.939 397.735Z" fill="#7971EA"/>
<path fill-rule="evenodd" clip-rule="evenodd" d="M85.619 536.341L83.434 543.19L151.963 541.642L148.861 535.687L85.619 536.341Z" fill="#7971EA"/>
<path d="M821.886 229.482C822.747 224.766 824.027 217.751 827.739 217.394C831.429 217.04 832.288 228.811 835.931 228.133C839.776 227.417 837.445 215.261 841.328 214.865C845.276 214.462 845.872 227.017 849.832 226.715C853.521 226.433 850.844 214.071 854.541 213.856C858.575 213.621 861.332 221.014 863.168 225.94" stroke="#222831" stroke-width="2.10944" stroke-miterlimit="1.5" stroke-linecap="round" stroke-linejoin="round"/>
<path d="M21.0815 200.367C21.9431 195.651 23.2231 188.636 26.9353 188.279C30.625 187.925 31.4837 199.697 35.1274 199.018C38.9721 198.303 36.6406 186.146 40.5243 185.75C44.4724 185.347 45.0676 197.903 49.0279 197.6C52.7166 197.319 50.0403 184.956 53.7371 184.741C57.771 184.507 60.5276 191.899 62.3639 196.825" stroke="#EBEBEB" stroke-width="2.10944" stroke-miterlimit="1.5" stroke-linecap="round" stroke-linejoin="round"/>
<path fill-rule="evenodd" clip-rule="evenodd" d="M66.8759 292.28L85.1633 287.732L78.9357 305.178L66.8759 292.28Z" stroke="#222831" stroke-width="2.10721" stroke-miterlimit="1.5" stroke-linecap="round" stroke-linejoin="round"/>
<path fill-rule="evenodd" clip-rule="evenodd" d="M550.384 60.6525L525.721 92.0367L569.225 103.527L550.384 60.6525Z" stroke="#EBEBEB" stroke-width="2.15146" stroke-miterlimit="1.5" stroke-linecap="round" stroke-linejoin="round"/>
<path d="M785.041 293.289C789.484 293.289 793.085 289.688 793.085 285.245C793.085 280.803 789.484 277.202 785.041 277.202C780.599 277.202 776.998 280.803 776.998 285.245C776.998 289.688 780.599 293.289 785.041 293.289Z" fill="#D4D3EB" stroke="#EBEBEB" stroke-width="2.15209" stroke-miterlimit="1.5" stroke-linecap="round" stroke-linejoin="round"/>
<path fill-rule="evenodd" clip-rule="evenodd" d="M664.623 432.481L717.207 460.222L725.763 450.001L731.68 452.514L722.062 472.697L660.896 437.788L664.623 432.481Z" fill="#D4D3EB"/>
<path fill-rule="evenodd" clip-rule="evenodd" d="M230.15 310.281H653.215L594.417 518.331H294.977L230.15 310.281Z" stroke="#222831" stroke-width="2.14943" stroke-miterlimit="1.5" stroke-linecap="round" stroke-linejoin="round"/>
<path d="M441.682 442.296C457.141 442.296 469.672 429.765 469.672 414.306C469.672 398.848 457.141 386.316 441.682 386.316C426.224 386.316 413.693 398.848 413.693 414.306C413.693 429.765 426.224 442.296 441.682 442.296Z" stroke="#222831" stroke-width="2.14943" stroke-miterlimit="1.5" stroke-linecap="round" stroke-linejoin="round"/>
<path fill-rule="evenodd" clip-rule="evenodd" d="M371.56 222.924L375.409 218.57L379.435 217.856L383.676 220.562L383.218 214.252L382.317 203.579C382.317 203.579 382.52 187.307 389.916 181.713C389.916 181.713 408.245 194.955 429.502 193.8C429.502 193.8 458.739 195.486 476.338 175.489L481.583 168.775L483.891 160.325L483.407 152.074L480.071 144.229L475.026 138.076L465.679 134.507L454.478 133.699L440.783 135.858L432.04 139.964L422.623 144.89L405.34 151.608L398.867 153.054L400.753 145.611L400.467 140.572L397.597 138.304L394.12 139.784L390.673 142.67L388.344 151.315L385.768 147.987L381.793 144.947L377.505 145.466L375.709 149.726L376.246 157.361L377.042 161.145L374.013 165.448L368.728 175.867L366.244 186.498L366.048 195.744L366.243 205.448L369.582 215.897L371.56 222.924Z" fill="#222831"/>
<path fill-rule="evenodd" clip-rule="evenodd" d="M469.474 175.632C469.474 175.632 459.329 205.112 470.816 221.936C470.816 221.936 477.826 210.063 485.586 220.552C485.586 220.552 490.811 182.712 474.121 171.606L469.474 175.632Z" fill="#222831"/>
<path fill-rule="evenodd" clip-rule="evenodd" d="M808.685 489.008L816.454 514.452L833.64 510.257L838.777 474.434L815.692 485.275L808.685 489.008Z" fill="#222831"/>
<path fill-rule="evenodd" clip-rule="evenodd" d="M755.011 451.154L761.879 489.899L795.037 480.874L789.832 457.069C789.832 457.069 771.472 456.949 755.011 451.154Z" fill="#222831"/>
<path fill-rule="evenodd" clip-rule="evenodd" d="M766.716 518.724L790.622 514.089L796.174 534.537C796.174 534.537 777.61 536.533 768.024 527.51L766.716 518.724Z" fill="#222831"/>
<path fill-rule="evenodd" clip-rule="evenodd" d="M91.4302 515.909L89.7241 521.232L144.772 520.128L142.694 515.125L91.4302 515.909Z" fill="#222831"/>
<path fill-rule="evenodd" clip-rule="evenodd" d="M88.8538 525.3L86.6456 530.627L148.057 529.674L145.716 524.905L88.8538 525.3Z" fill="#222831"/>
<path d="M383.705 177.373C386.292 179.361 388.889 181.356 391.674 183.053C397.962 186.885 405.864 190.349 413.007 191.933C437.863 197.442 466.148 190.96 480.336 170.336C487.752 159.555 483.256 141.495 472.44 136.841C458.607 130.888 444.224 133.113 430.805 140.223C430.805 140.223 414.771 149.829 399.689 152.664" stroke="#222831" stroke-width="2.14943" stroke-miterlimit="1.5" stroke-linecap="round" stroke-linejoin="round"/>
<path d="M396.564 159.064C396.564 159.064 406.969 137.19 396.085 138.476C396.085 138.476 387.831 139.098 387.417 158.949" stroke="#222831" stroke-width="2.14943" stroke-miterlimit="1.5" stroke-linecap="round" stroke-linejoin="round"/>
<path d="M387.417 151.542C387.417 151.542 382.844 141.38 377.631 145.664C377.631 145.664 372.914 150.081 377.781 161.499L379.708 165.53" stroke="#222831" stroke-width="2.14943" stroke-miterlimit="1.5" stroke-linecap="round" stroke-linejoin="round"/>
<path d="M376.376 161.054C376.376 161.054 365.814 174.256 365.495 197.813C365.495 197.813 364.628 202.018 371.348 222.532" stroke="#222831" stroke-width="2.14943" stroke-miterlimit="1.5" stroke-linecap="round" stroke-linejoin="round"/>
<path d="M389.14 181.344C389.14 181.344 378.773 193.075 383.674 219.989" stroke="#222831" stroke-width="2.14943" stroke-miterlimit="1.5" stroke-linecap="round" stroke-linejoin="round"/>
<path d="M468.189 182.862C468.189 182.862 460.75 200.67 470.129 221.916" stroke="#222831" stroke-width="2.14943" stroke-miterlimit="1.5" stroke-linecap="round" stroke-linejoin="round"/>
<path d="M477.677 174.461C477.677 174.461 489.58 184.444 485.234 219.944" stroke="#222831" stroke-width="2.14943" stroke-miterlimit="1.5" stroke-linecap="round" stroke-linejoin="round"/>
<path d="M469.181 227.385C469.181 227.385 469.463 216.137 479.728 216.197C479.728 216.197 481.911 216.42 483.896 218.529C485.944 220.705 487.785 224.891 486.806 232.913C486.806 232.913 485.343 248.178 477.07 248.482C477.07 248.482 470.467 249.186 470.384 241.362" stroke="#222831" stroke-width="2.14943" stroke-miterlimit="1.5" stroke-linecap="round" stroke-linejoin="round"/>
<path d="M475.309 228.063C475.309 228.063 480.699 227.282 481.57 234.002" stroke="#222831" stroke-width="2.14943" stroke-miterlimit="1.5" stroke-linecap="round" stroke-linejoin="round"/>
<path d="M479.519 230.858C479.519 230.858 475.847 232.48 476.306 236.942" stroke="#222831" stroke-width="2.14943" stroke-miterlimit="1.5" stroke-linecap="round" stroke-linejoin="round"/>
<path d="M385.681 227.296C385.681 227.296 386.453 216.383 376.838 217.736C376.838 217.736 368.836 219.058 371.05 234.345C371.05 234.345 373.424 248.481 384.706 248.12C384.706 248.12 389.884 247.822 389.564 242.28" stroke="#222831" stroke-width="2.14943" stroke-miterlimit="1.5" stroke-linecap="round" stroke-linejoin="round"/>
<path d="M376.5 235.244C376.5 235.244 375.533 230.614 380.642 229.396" stroke="#222831" stroke-width="2.14943" stroke-miterlimit="1.5" stroke-linecap="round" stroke-linejoin="round"/>
<path d="M383.231 237.328C383.231 237.328 381.605 232.878 377.667 231.035" stroke="#222831" stroke-width="2.14943" stroke-miterlimit="1.5" stroke-linecap="round" stroke-linejoin="round"/>
<path d="M387.668 247.263C387.668 247.263 388.632 275.514 412.561 282.806C412.561 282.806 422.404 286.372 431.51 287.052C431.51 287.052 443.643 287.895 450.934 284.574C450.934 284.574 471.272 276.438 474.399 251.93C474.568 250.613 474.642 250.163 474.704 248.757" stroke="#222831" stroke-width="2.14943" stroke-miterlimit="1.5" stroke-linecap="round" stroke-linejoin="round"/>
<path d="M405.822 279.787L409.794 296C409.794 296 412.784 304.242 440.798 301.649C440.798 301.649 461.007 299.774 465.776 290.162L465.724 272.982" stroke="#222831" stroke-width="2.14943" stroke-miterlimit="1.5" stroke-linecap="round" stroke-linejoin="round"/>
<path d="M408.699 294.613C408.699 294.613 391.637 288.713 366.041 291.518C366.041 291.518 330.627 294.343 328.07 310.035" stroke="#222831" stroke-width="2.14943" stroke-miterlimit="1.5" stroke-linecap="round" stroke-linejoin="round"/>
<path d="M465.172 291.304C468.116 290.571 473.165 289.318 476.15 288.779C483.108 287.523 490.079 286.317 497.089 285.401C516.621 282.848 540.759 282.066 550.353 302.727C551.473 305.139 552.463 307.675 552.843 310.306" stroke="#222831" stroke-width="2.14943" stroke-miterlimit="1.5" stroke-linecap="round" stroke-linejoin="round"/>
<path d="M439.184 227.375C440.548 227.375 441.655 225.701 441.655 223.637C441.655 221.572 440.548 219.899 439.184 219.899C437.819 219.899 436.713 221.572 436.713 223.637C436.713 225.701 437.819 227.375 439.184 227.375Z" fill="#222831"/>
<path d="M415.248 227.375C416.613 227.375 417.719 225.701 417.719 223.637C417.719 221.572 416.613 219.899 415.248 219.899C413.883 219.899 412.777 221.572 412.777 223.637C412.777 225.701 413.883 227.375 415.248 227.375Z" fill="#222831"/>
<path fill-rule="evenodd" clip-rule="evenodd" d="M797.218 534.345C797.218 534.345 812.236 535.889 828.497 526.874C831.625 525.139 833.379 530.91 833.379 533.282C833.379 540.434 817.697 546.872 798.247 546.872C778.797 546.872 763.007 541.062 763.007 533.91C763.007 531.405 764.407 526.887 768.304 527.076C768.625 527.093 772.022 536.785 797.218 534.345Z" fill="#D4D3EB"/>
<path d="M426.555 226.333L424.67 241.699C424.67 241.699 424.177 246.358 435.21 245.226" stroke="#222831" stroke-width="2.14943" stroke-miterlimit="1.5" stroke-linecap="round" stroke-linejoin="round"/>
<path d="M430.92 268.426C430.92 268.426 448.893 270.363 457.161 249.807" stroke="#222831" stroke-width="2.14943" stroke-miterlimit="1.5" stroke-linecap="round" stroke-linejoin="round"/>
<path d="M417.466 206.399C417.466 206.399 414.207 206.733 407.095 211.068" stroke="#222831" stroke-width="2.14943" stroke-miterlimit="1.5" stroke-linecap="round" stroke-linejoin="round"/>
<path d="M435.004 204.756C435.004 204.756 439.985 204.154 447.501 207.526" stroke="#222831" stroke-width="2.14943" stroke-miterlimit="1.5" stroke-linecap="round" stroke-linejoin="round"/>
<path d="M800.684 109.676C816.068 109.676 828.539 97.248 828.539 81.9174C828.539 66.5869 816.068 54.159 800.684 54.159C785.3 54.159 772.829 66.5869 772.829 81.9174C772.829 97.248 785.3 109.676 800.684 109.676Z" stroke="#222831" stroke-width="2.15317" stroke-miterlimit="1.5" stroke-linecap="round" stroke-linejoin="round"/>
<path d="M261.504 121.145C292.666 121.145 317.927 95.9707 317.927 64.9169C317.927 33.8632 292.666 8.68918 261.504 8.68918C230.342 8.68918 205.08 33.8632 205.08 64.9169C205.08 95.9707 230.342 121.145 261.504 121.145Z" stroke="#222831" stroke-width="2.1514" stroke-miterlimit="1.5" stroke-linecap="round" stroke-linejoin="round"/>
<path d="M627.198 187.52L625.92 196.845L620.812 236.272C620.812 236.272 617 260.423 642.752 265.417C642.752 265.417 679.433 276.864 705.901 244.092C705.901 244.092 714.903 232.653 711.266 222.295" stroke="#222831" stroke-width="2.14943" stroke-miterlimit="1.5" stroke-linecap="round" stroke-linejoin="round"/>
<path d="M706.481 219.913C706.481 219.913 714.59 226.29 719.909 209.73C719.909 209.73 724.075 196.69 714.498 196.847C714.498 196.847 709.648 196.562 706.251 203.864" stroke="#222831" stroke-width="2.15391" stroke-miterlimit="1.5" stroke-linecap="round" stroke-linejoin="round"/>
<path d="M714.664 203.965C714.664 203.965 710.268 204.559 708.607 211.314" stroke="#222831" stroke-width="2.14943" stroke-miterlimit="1.5" stroke-linecap="round" stroke-linejoin="round"/>
<path d="M714.664 211.314C714.664 211.314 715.944 208.13 711.636 207.639" stroke="#222831" stroke-width="2.14943" stroke-miterlimit="1.5" stroke-linecap="round" stroke-linejoin="round"/>
<path d="M620.614 174.907C620.614 174.907 621.237 201.619 666.148 187.294C666.148 187.294 684.113 181.584 706.252 160.226" stroke="#222831" stroke-width="2.14943" stroke-miterlimit="1.5" stroke-linecap="round" stroke-linejoin="round"/>
<path d="M698.507 168.169C698.507 168.169 710.235 175.767 708.607 199.508" stroke="#222831" stroke-width="2.14943" stroke-miterlimit="1.5" stroke-linecap="round" stroke-linejoin="round"/>
<path d="M698.507 147.757C698.507 147.757 723.663 137.376 714.842 196.845" stroke="#222831" stroke-width="2.14943" stroke-miterlimit="1.5" stroke-linecap="round" stroke-linejoin="round"/>
<path d="M706.252 147.062C704.587 144.483 701.889 140.621 699.366 138.797C696.157 136.48 692.908 134.057 689.21 132.647C671.608 125.937 654.504 136.129 640.202 145.233C628.918 152.416 619.312 158.773 620.614 175.872" stroke="#222831" stroke-width="2.14943" stroke-miterlimit="1.5" stroke-linecap="round" stroke-linejoin="round"/>
<path d="M712.131 223.87C712.131 223.87 715.972 258.717 716.717 297.967C716.717 297.967 694.395 322.7 663.373 302.012C663.373 302.012 665.91 283.451 660.528 267.353" stroke="#222831" stroke-width="2.14943" stroke-miterlimit="1.5" stroke-linecap="round" stroke-linejoin="round"/>
<path d="M663.588 302.155C663.588 302.155 644.114 285.762 617.267 310.35" stroke="#222831" stroke-width="2.14943" stroke-miterlimit="1.5" stroke-linecap="round" stroke-linejoin="round"/>
<path d="M737.713 296.714C737.713 296.714 710.043 286.492 700.922 331.785L679.377 426.985" stroke="#222831" stroke-width="2.15317" stroke-miterlimit="1.5" stroke-linecap="round" stroke-linejoin="round"/>
<path d="M737.714 296.801C737.714 296.801 765.009 302.296 751.63 352.853L734.472 411.299" stroke="#222831" stroke-width="2.14943" stroke-miterlimit="1.5" stroke-linecap="round" stroke-linejoin="round"/>
<path d="M723.764 447.775L729.253 429.079" stroke="#222831" stroke-width="2.14943" stroke-miterlimit="1.5" stroke-linecap="round" stroke-linejoin="round"/>
<path fill-rule="evenodd" clip-rule="evenodd" d="M670.131 423.231L731.713 452.566L721.508 472.319L660.042 437.626L670.131 423.231Z" stroke="#222831" stroke-width="2.14943" stroke-miterlimit="1.5" stroke-linecap="round" stroke-linejoin="round"/>
<path d="M713.331 469.34C714.24 466.778 712.664 471.103 712.56 471.355C711.926 472.896 709.55 477.021 698.954 480.831" stroke="#222831" stroke-width="2.14943" stroke-miterlimit="1.5" stroke-linecap="round" stroke-linejoin="round"/>
<path d="M666.619 441.498C666.619 441.498 632.856 446.261 611.447 458.085" stroke="#222831" stroke-width="2.15527" stroke-miterlimit="1.5" stroke-linecap="round" stroke-linejoin="round"/>
<path fill-rule="evenodd" clip-rule="evenodd" d="M663.411 284.458C663.411 284.458 677.067 280.305 690.464 270.791C699.76 264.189 708.933 255.005 713.331 242.837L712.289 231.516C712.289 231.516 702.746 263.336 660.041 267.592C660.041 267.592 663.585 271.205 663.411 284.458Z" fill="#222831" stroke="#222831" stroke-width="2.14943" stroke-miterlimit="1.5" stroke-linecap="round" stroke-linejoin="round"/>
<path d="M640.313 211.018C641.249 211.018 642.008 209.147 642.008 206.84C642.008 204.532 641.249 202.661 640.313 202.661C639.378 202.661 638.619 204.532 638.619 206.84C638.619 209.147 639.378 211.018 640.313 211.018Z" fill="#222831"/>
<path d="M654.563 211.078C655.528 211.078 656.311 209.208 656.311 206.9C656.311 204.592 655.528 202.722 654.563 202.722C653.598 202.722 652.815 204.592 652.815 206.9C652.815 209.208 653.598 211.078 654.563 211.078Z" fill="#222831"/>
<path d="M646.529 214.817L644.618 226.4C644.618 226.4 642.46 232.749 652.601 229.665" stroke="#222831" stroke-width="2.14943" stroke-miterlimit="1.5" stroke-linecap="round" stroke-linejoin="round"/>
<path d="M637.572 236.66C637.572 236.66 634.807 244.469 655.89 239.488L666.271 236.991" stroke="#222831" stroke-width="2.14943" stroke-miterlimit="1.5" stroke-linecap="round" stroke-linejoin="round"/>
<path d="M638.893 241.214L640.623 249.559C640.623 249.559 648.492 257.068 664.31 245.565C664.31 245.565 666.508 242.478 664.495 238.233" stroke="#222831" stroke-width="2.14943" stroke-miterlimit="1.5" stroke-linecap="round" stroke-linejoin="round"/>
<path d="M223.638 226.256L225.397 235.491C225.397 235.491 228.164 251.944 229.075 257.371C229.329 258.874 229.221 260.417 228.761 261.871C227.056 267.14 220.671 278.038 196.928 277.965C196.928 277.965 173.374 277.365 159.746 265.95" stroke="#222831" stroke-width="2.14943" stroke-miterlimit="1.5" stroke-linecap="round" stroke-linejoin="round"/>
<path d="M173.109 274.04C173.109 274.04 176.439 297.886 196.416 322.742C197.467 324.045 197.92 325.732 197.663 327.387C196.902 331.953 193.643 340.074 179.606 337.805C179.606 337.805 161.253 333.488 158.292 322.207C158.292 322.207 152.55 298.748 152.895 256.234" stroke="#222831" stroke-width="2.14943" stroke-miterlimit="1.5" stroke-linecap="round" stroke-linejoin="round"/>
<path d="M159.88 229.65C159.88 229.65 187.82 246.835 234.365 220.644C234.365 220.644 239.424 205.248 221.352 175.578C221.277 175.454 221.201 175.332 221.126 175.209C221.019 175.035 220.896 174.873 220.755 174.725C218.788 172.777 202.954 158.364 171.998 167.105C171.998 167.105 135.088 178.39 133.247 220.14C133.247 220.14 135.504 247.927 122.237 286.117C120.987 289.692 121.964 293.668 124.727 296.258C128.938 300.167 137.488 305.159 154.744 308.36" stroke="#222831" stroke-width="2.14943" stroke-miterlimit="1.5" stroke-linecap="round" stroke-linejoin="round"/>
<path d="M224.571 269.541C224.571 269.541 226.488 274.036 234.699 278.197C236.805 279.313 238.177 281.443 238.323 283.821C238.468 286.199 237.366 288.481 235.414 289.845C227.084 295.404 212.193 302.633 187.212 307.218" stroke="#222831" stroke-width="2.14943" stroke-miterlimit="1.5" stroke-linecap="round" stroke-linejoin="round"/>
<path d="M160.75 236.835C160.75 236.835 147.009 229.261 145.973 244.156C145.973 244.156 143.648 258.724 159.538 254.599" stroke="#222831" stroke-width="2.14943" stroke-miterlimit="1.5" stroke-linecap="round" stroke-linejoin="round"/>
<path d="M151.086 245.728C151.086 245.728 151.901 241.357 157.019 240.966" stroke="#222831" stroke-width="2.14943" stroke-miterlimit="1.5" stroke-linecap="round" stroke-linejoin="round"/>
<path d="M153.814 242.282C153.814 242.282 156.394 243.825 155.72 249.018" stroke="#222831" stroke-width="2.14943" stroke-miterlimit="1.5" stroke-linecap="round" stroke-linejoin="round"/>
<path d="M157.389 319.668C157.389 319.668 127.343 296.703 110.31 326.732C110.31 326.732 87.299 369.675 95.8514 440.479C95.8514 440.479 99.4486 465.901 141.844 482.594" stroke="#222831" stroke-width="2.14943" stroke-miterlimit="1.5" stroke-linecap="round" stroke-linejoin="round"/>
<path d="M139.985 378.27C139.985 378.27 130.618 406.934 142.886 440.293" stroke="#222831" stroke-width="2.14943" stroke-miterlimit="1.5" stroke-linecap="round" stroke-linejoin="round"/>
<path d="M139.732 428.564C139.732 428.564 149.839 448.352 186.993 471.359" stroke="#222831" stroke-width="2.14943" stroke-miterlimit="1.5" stroke-linecap="round" stroke-linejoin="round"/>
<path d="M227.858 480.963C227.858 480.963 227.568 480.448 224.779 478.57C215.337 472.208 192.6 460.71 174.811 482.258" stroke="#222831" stroke-width="2.14943" stroke-miterlimit="1.5" stroke-linecap="round" stroke-linejoin="round"/>
<path d="M213.672 472.491C213.672 472.491 202.115 460.98 195.314 465.935L187.542 471.792" stroke="#222831" stroke-width="2.14943" stroke-miterlimit="1.5" stroke-linecap="round" stroke-linejoin="round"/>
<path d="M227.759 386.32C227.759 386.32 222.21 426.158 258.499 480.932" stroke="#222831" stroke-width="2.14943" stroke-miterlimit="1.5" stroke-linecap="round" stroke-linejoin="round"/>
<path d="M227.924 400.461C227.924 400.461 244.083 446.786 278.945 471.482C280.721 472.741 278.812 471.53 280.708 472.696" stroke="#222831" stroke-width="2.14943" stroke-miterlimit="1.5" stroke-linecap="round" stroke-linejoin="round"/>
<path d="M197.057 329.56C197.057 329.56 214.808 323.944 245.767 360.406" stroke="#222831" stroke-width="2.14943" stroke-miterlimit="1.5" stroke-linecap="round" stroke-linejoin="round"/>
<path fill-rule="evenodd" clip-rule="evenodd" d="M158.361 266.213C158.361 266.213 160.933 275.452 175.718 285.23L172.998 274.047L162.993 268.034L158.361 266.213Z" fill="#222831" stroke="#222831" stroke-width="2.14943" stroke-miterlimit="1.5" stroke-linecap="round" stroke-linejoin="round"/>
<path d="M196.998 247.534C198.119 247.593 199.113 246.015 199.217 244.011C199.321 242.007 198.496 240.335 197.374 240.277C196.252 240.219 195.259 241.796 195.155 243.8C195.051 245.804 195.876 247.476 196.998 247.534Z" fill="#222831"/>
<path d="M215.448 246.281C216.497 246.336 217.427 244.828 217.527 242.913C217.626 240.998 216.856 239.402 215.808 239.348C214.759 239.293 213.828 240.801 213.729 242.716C213.63 244.631 214.399 246.227 215.448 246.281Z" fill="#222831"/>
<path d="M204.78 267.959C204.78 267.959 210.711 270.003 214.976 266.262" stroke="#222831" stroke-width="2.14943" stroke-miterlimit="1.5" stroke-linecap="round" stroke-linejoin="round"/>
<path d="M210.491 249.642L211.956 253.661C211.956 253.661 214.478 259.543 208.044 258.431" stroke="#222831" stroke-width="2.14943" stroke-miterlimit="1.5" stroke-linecap="round" stroke-linejoin="round"/>
<path d="M152.556 230.074C152.556 230.074 150.711 214.966 160.768 200.849C160.768 200.849 153.949 216.674 159.811 229.392" stroke="#222831" stroke-width="2.14943" stroke-miterlimit="1.5" stroke-linecap="round" stroke-linejoin="round"/>
<path fill-rule="evenodd" clip-rule="evenodd" d="M87.2011 502.993L147.287 501.621L164.536 548.944L69.0852 551.768L87.2011 502.993Z" stroke="#222831" stroke-width="2.14943" stroke-miterlimit="1.5" stroke-linecap="round" stroke-linejoin="round"/>
<path d="M754.562 449.82C754.562 449.82 768.372 527.177 768.109 526.915C767.845 526.652 770.194 535.429 803.841 534.539C803.841 534.539 819.716 534.705 830.502 525.542C830.974 525.141 831.273 524.585 831.36 523.978C832.555 515.432 841.625 450.393 841.625 450.393" stroke="#222831" stroke-width="2.14943" stroke-miterlimit="1.5" stroke-linecap="round" stroke-linejoin="round"/>
<path d="M800.659 441.929C800.209 441.924 802.086 441.925 800.659 441.929ZM800.659 441.929C806.71 441.991 811.588 442.195 816.73 442.642M816.73 442.642C815.899 442.557 817.59 442.717 816.73 442.642Z" stroke="#222831" stroke-width="2.1549" stroke-miterlimit="1.5" stroke-linecap="round" stroke-linejoin="round"/>
<path d="M822.8 443.252C823.729 443.346 822.487 443.26 823.367 443.365C834.726 444.728 841.618 446.891 841.618 449.466C841.618 453.632 822.106 457.015 798.068 457.015C774.039 457.015 754.525 453.632 754.525 449.466C754.525 446.667 763.323 444.223 776.38 442.919M776.38 442.919C775.346 443.004 777.366 442.821 776.38 442.919Z" stroke="#222831" stroke-width="2.1549" stroke-miterlimit="1.5" stroke-linecap="round" stroke-linejoin="round"/>
<path d="M782.718 442.399C781.592 442.473 783.796 442.31 782.718 442.399ZM782.718 442.399C786.354 442.161 790.222 442.005 794.245 441.944M794.245 441.944C792.986 441.947 794.837 441.936 794.245 441.944Z" stroke="#222831" stroke-width="2.1549" stroke-miterlimit="1.5" stroke-linecap="round" stroke-linejoin="round"/>
<path d="M800.502 456.634C800.502 456.634 795.817 446.541 794.796 442.124C792.839 433.624 793.253 417.697 812.405 397.248C812.405 397.248 836.743 374.121 819.124 347.171C818.883 346.802 818.883 346.325 819.133 345.959C819.374 345.593 819.818 345.411 820.251 345.497C832.02 348.064 877.505 361.183 844.367 405.388C844.367 405.388 822.565 430.276 800.752 426.414C800.752 426.414 791.875 426.456 805.543 456.507" stroke="#222831" stroke-width="2.14943" stroke-miterlimit="1.5" stroke-linecap="round" stroke-linejoin="round"/>
<path d="M784.223 456.047C784.223 456.047 770.352 446.023 780.198 424.768C780.198 424.768 753.376 450.297 723.875 424.272C723.875 424.272 721.948 421.614 716.792 422.565C716.792 422.565 716.546 406.175 741.236 413.625C741.236 413.625 753.88 419.058 769.695 407.784C770.118 407.481 770.583 407.24 771.077 407.069C774.03 406.144 783.646 404.112 785.676 416.981C785.676 416.981 786.641 422.829 782.383 431.437C782.383 431.437 775.423 445.889 796.241 456.99" stroke="#222831" stroke-width="2.14943" stroke-miterlimit="1.5" stroke-linecap="round" stroke-linejoin="round"/>
<path d="M818.025 455.8C818.025 455.8 820.936 440.775 812.029 426.442C811.866 426.187 812.656 427.45 812.589 427.372" stroke="#222831" stroke-width="2.14943" stroke-miterlimit="1.5" stroke-linecap="round" stroke-linejoin="round"/>
<path d="M800.56 412.495C798.651 410.107 800.694 412.649 800.56 412.495ZM800.56 412.495C798.458 410.084 795.297 408.522 792.106 406.775C792.106 406.775 750.172 385.89 778.318 340.954C778.318 340.954 779.578 347.051 781.04 348.632C781.04 348.632 807.422 370.621 798.506 395.932C798.506 395.932 794.67 402.435 802.776 409.021C802.825 409.058 802.439 409.04 802.497 409.028M802.497 409.028C800.772 407.054 802.564 409.01 802.497 409.028Z" stroke="#222831" stroke-width="2.14943" stroke-miterlimit="1.5" stroke-linecap="round" stroke-linejoin="round"/>
<path d="M816.83 424.979C816.415 424.086 818.247 426.6 816.83 424.979ZM816.83 424.979C819.77 431.258 823.105 440.637 824.223 454.753" stroke="#222831" stroke-width="2.14943" stroke-miterlimit="1.5" stroke-linecap="round" stroke-linejoin="round"/>
<path d="M762.087 489.575L794.931 480.625L789.388 457.424" stroke="#222831" stroke-width="2.14943" stroke-miterlimit="1.5" stroke-linecap="round" stroke-linejoin="round"/>
<path d="M837.514 473.974L808.955 488.964L816.367 514.692L833.09 509.905" stroke="#222831" stroke-width="2.14943" stroke-miterlimit="1.5" stroke-linecap="round" stroke-linejoin="round"/>
<path d="M767.245 518.498L790.738 513.472L795.625 533.592" stroke="#222831" stroke-width="2.14943" stroke-miterlimit="1.5" stroke-linecap="round" stroke-linejoin="round"/>
<path d="M863.919 480.161L837.51 480.262" stroke="#222831" stroke-width="2.14943" stroke-miterlimit="1.5" stroke-linecap="round" stroke-linejoin="round"/>
<path d="M760.034 480.558L604.919 481.152" stroke="#222831" stroke-width="2.14943" stroke-miterlimit="1.5" stroke-linecap="round" stroke-linejoin="round"/>
<path d="M283.536 482.381L31.2346 483.347" stroke="#222831" stroke-width="2.14943" stroke-miterlimit="1.5" stroke-linecap="round" stroke-linejoin="round"/>
<path d="M767.573 419.061C767.573 419.061 760.426 428.691 741.381 421.865" stroke="#222831" stroke-width="2.14943" stroke-miterlimit="1.5" stroke-linecap="round" stroke-linejoin="round"/>
<path d="M780.913 366.846C780.913 366.846 781.114 377.529 790.073 389.806" stroke="#222831" stroke-width="2.14943" stroke-miterlimit="1.5" stroke-linecap="round" stroke-linejoin="round"/>
<path d="M819.191 408.954C819.191 408.954 831.239 403.941 836.001 382.001" stroke="#222831" stroke-width="2.14943" stroke-miterlimit="1.5" stroke-linecap="round" stroke-linejoin="round"/>
<path fill-rule="evenodd" clip-rule="evenodd" d="M294.48 519.64L262.683 532.244L628.537 533.896L594.772 519.741L294.48 519.64Z" fill="#D4D3EB"/>
<path fill-rule="evenodd" clip-rule="evenodd" d="M68.0996 552.966L64.5006 559.559L167.341 557.704L165.362 550.031L68.0996 552.966Z" fill="#D4D3EB"/>
<path fill-rule="evenodd" clip-rule="evenodd" d="M439.937 287.588C439.937 287.588 459.462 287.703 466.042 283.433L465.964 273.324L458.743 280.048C458.743 280.048 447.111 287.851 439.937 287.588Z" fill="#222831"/>
</g>
<defs>
<clipPath id="clip0_1_378">
<rect width="865" height="559.883" fill="white"/>
</clipPath>
</defs>
</svg>
