<svg width="160" height="51" viewBox="0 0 160 51" fill="none" xmlns="http://www.w3.org/2000/svg">
<path d="M25.75 25.25C25.75 11.3048 14.4452 -4.94149e-07 0.5 -1.10371e-06L0.499998 50.5C14.4452 50.5 25.75 39.1952 25.75 25.25Z" fill="#7A71EB"/>
<path d="M34.9316 25.25C34.9316 39.1952 46.2365 50.5 60.1816 50.5L60.1816 3.01103e-07C46.2365 1.34809e-07 34.9316 11.3048 34.9316 25.25Z" fill="#7A71EB"/>
<path d="M147.314 42.9602C144.757 42.9602 142.541 42.3977 140.666 41.2727C138.791 40.1477 137.337 38.5739 136.303 36.5511C135.28 34.5284 134.769 32.1648 134.769 29.4602C134.769 26.7557 135.28 24.3864 136.303 22.3523C137.337 20.3182 138.791 18.7386 140.666 17.6136C142.541 16.4886 144.757 15.9261 147.314 15.9261C149.871 15.9261 152.087 16.4886 153.962 17.6136C155.837 18.7386 157.286 20.3182 158.308 22.3523C159.342 24.3864 159.859 26.7557 159.859 29.4602C159.859 32.1648 159.342 34.5284 158.308 36.5511C157.286 38.5739 155.837 40.1477 153.962 41.2727C152.087 42.3977 149.871 42.9602 147.314 42.9602ZM147.348 38.0171C148.734 38.0171 149.894 37.6364 150.825 36.875C151.757 36.1023 152.45 35.0682 152.905 33.7727C153.371 32.4773 153.604 31.0341 153.604 29.4432C153.604 27.8409 153.371 26.3921 152.905 25.0966C152.45 23.7898 151.757 22.75 150.825 21.9773C149.894 21.2046 148.734 20.8182 147.348 20.8182C145.928 20.8182 144.746 21.2046 143.803 21.9773C142.871 22.75 142.172 23.7898 141.706 25.0966C141.252 26.3921 141.024 27.8409 141.024 29.4432C141.024 31.0341 141.252 32.4773 141.706 33.7727C142.172 35.0682 142.871 36.1023 143.803 36.875C144.746 37.6364 145.928 38.0171 147.348 38.0171Z" fill="#EEEEEE"/>
<path d="M123.378 31.4375V16.2671H129.548V42.4489H123.565V37.7955H123.293C122.702 39.2614 121.73 40.4603 120.378 41.3921C119.037 42.3239 117.384 42.7898 115.418 42.7898C113.702 42.7898 112.185 42.4091 110.867 41.6478C109.56 40.875 108.537 39.7557 107.798 38.2898C107.06 36.8125 106.69 35.0285 106.69 32.9375V16.2671H112.861V31.983C112.861 33.6421 113.315 34.9603 114.225 35.9375C115.134 36.9148 116.327 37.4035 117.804 37.4035C118.713 37.4035 119.594 37.1819 120.446 36.7387C121.298 36.2955 121.997 35.6364 122.543 34.7614C123.1 33.875 123.378 32.7671 123.378 31.4375Z" fill="#EEEEEE"/>
<path d="M84.0114 42.4489H72.1819V7.53979H84.2501C87.716 7.53979 90.6932 8.23866 93.1819 9.63639C95.6819 11.0227 97.6023 13.0171 98.9432 15.6193C100.284 18.2216 100.955 21.3353 100.955 24.9603C100.955 28.5966 100.278 31.7216 98.9262 34.3353C97.5853 36.9489 95.6478 38.9546 93.1137 40.3523C90.591 41.75 87.5569 42.4489 84.0114 42.4489ZM78.5057 36.9773H83.7046C86.1364 36.9773 88.1648 36.5341 89.7898 35.6478C91.4148 34.75 92.6364 33.4148 93.4546 31.6421C94.2728 29.858 94.6819 27.6307 94.6819 24.9603C94.6819 22.2898 94.2728 20.0739 93.4546 18.3125C92.6364 16.5398 91.4262 15.2159 89.8239 14.3409C88.233 13.4546 86.2557 13.0114 83.8921 13.0114H78.5057V36.9773Z" fill="#EEEEEE"/>
</svg>
