<svg width="643" height="436" viewBox="0 0 643 436" fill="none" xmlns="http://www.w3.org/2000/svg">
<g clip-path="url(#clip0_9_637)">
<mask id="mask0_9_637" style="mask-type:luminance" maskUnits="userSpaceOnUse" x="0" y="0" width="643" height="437">
<path d="M643 0.66748H0V436H643V0.66748Z" fill="white"/>
</mask>
<g mask="url(#mask0_9_637)">
<path d="M643 0.66748H0V436H643V0.66748Z" fill="#EEEEEE"/>
<path d="M369.172 185.713V185.717C369.172 189.436 367.694 193.003 365.064 195.632C362.433 198.262 358.866 199.739 355.147 199.739C351.428 199.739 347.861 198.261 345.231 195.631C342.601 193.001 341.124 189.434 341.124 185.715C341.124 181.995 342.601 178.428 345.231 175.798C347.861 173.168 351.428 171.691 355.147 171.69C358.866 171.69 362.433 173.167 365.064 175.797C367.694 178.427 369.172 181.993 369.172 185.713ZM443.956 134.298V302.564C443.95 307.52 441.978 312.272 438.473 315.777C434.969 319.282 430.216 321.254 425.26 321.26H219.602C214.645 321.254 209.893 319.282 206.388 315.777C202.883 312.272 200.911 307.52 200.906 302.564V134.298C200.911 129.341 202.883 124.589 206.388 121.084C209.893 117.579 214.645 115.607 219.602 115.602H425.26C430.216 115.607 434.969 117.579 438.473 121.084C441.978 124.589 443.95 129.341 443.956 134.298ZM425.269 261.308L425.26 134.298H219.602V242.602L262.47 199.735C265.979 196.234 270.734 194.268 275.691 194.268C280.648 194.268 285.402 196.234 288.911 199.735L341.128 251.952L365.299 227.779C368.808 224.278 373.563 222.312 378.52 222.312C383.477 222.312 388.231 224.278 391.74 227.779L425.269 261.308Z" fill="white"/>
</g>
</g>
<defs>
<clipPath id="clip0_9_637">
<rect width="643" height="436" fill="white"/>
</clipPath>
</defs>
</svg>
